<svg xmlns="http://www.w3.org/2000/svg" xmlns:xlink="http://www.w3.org/1999/xlink" version="1.1" id="Layer_1" x="0px" y="0px" viewBox="-100 -10 383.8 100.1" style="enable-background:new 0 0 173.8 79.1;" xml:space="preserve" class="svg-image">
<style type="text/css">
	.st0{fill:#FFFFFF;}
</style>
<g>
	<g>
		<g>
			<polygon class="st0" points="34.9,60.7 34.9,24.2 48,24.2 48,60.7    "></polygon>
		</g>
		<g>
			<path class="st0" d="M73.3,60.7V32.5h-9.8v28.2H50.6V32.8c0-5.7,2.8-8.6,8.7-8.6h18.2c6.5,0,8.7,3.1,8.7,8.6v27.9L73.3,60.7     L73.3,60.7z"></path>
		</g>
		<g>
			<polygon class="st0" points="88.8,60.7 88.8,24.2 101.8,24.2 101.8,60.7    "></polygon>
		</g>
		<g>
			<path class="st0" d="M130,60.7c0,0-7.5,0.1-8.7,0.1c-2,0-8.7-0.1-8.7-0.1c-4.4-0.1-8.7-1.6-8.7-8.7V33.5c0-4.4,1.5-9.2,8.9-9.3     c0,0,6.9-0.1,8.6-0.1c2,0,8.7,0.1,8.7,0.1c4.4,0.1,8.7,1.5,8.7,8.9v18.4C138.9,55.8,137.5,60.5,130,60.7L130,60.7z M125.9,32.5     h-9v19.9h9V32.5L125.9,32.5z"></path>
		</g>
		<g>
			<path class="st0" d="M164.9,60.7h-23.5v-7.8h21.4v-6.5h-12.7c-7.7,0-8.7-3.4-8.7-11c0-6.5,1.2-11.3,8.7-11.3H172v7.7h-18.3v6.5     H165c7.7,0,8.6,3.6,8.6,10.6C173.6,56.5,172.3,60.7,164.9,60.7L164.9,60.7z"></path>
		</g>
		<g>
			<path class="st0" d="M84.6,12.5v3.9h11.9v5.2H82.2c-4.3,0-5.2-2.8-5.2-5.2V5.7c0-3.4,1.7-5.4,5.2-5.5c0,0,4.1-0.1,5.2-0.1     s5,0.1,5,0.1c3.6,0.1,5,1.8,5,5.2v7.1L84.6,12.5L84.6,12.5z M89.9,4.7h-5.4v4.9h5.4V4.7L89.9,4.7z"></path>
		</g>
		<g>
			<path class="st0" d="M106.9,5.2v16.4h-7.6V5.5c0-3.1,1.5-5.2,5.2-5.2h9.4v4.9H106.9L106.9,5.2z"></path>
		</g>
		<g>
			<path class="st0" d="M150.5,16.8v4.9h-9.4c-3.7,0-5.2-2-5.2-5.2V0.3h7.6v16.5H150.5L150.5,16.8z"></path>
		</g>
		<g>
			<path class="st0" d="M129.1,21.5h-13.8V17h12.5v-3.8h-7.4c-4.5,0-5-2-5-6.4c0-3.9,0.7-6.5,5.1-6.5h12.7v4.5h-10.6v3.8h6.6     c4.5,0,5,2.1,5,6.2C134.2,19.1,133.5,21.5,129.1,21.5L129.1,21.5z"></path>
		</g>
		<g>
			<path class="st0" d="M167.5,21.5c0,0-4.4,0.1-5,0.1c-1.2,0-5.1-0.1-5.1-0.1c-2.6-0.1-5-0.9-5-5.1V5.7c0-2.6,0.9-5.3,5.2-5.5     c0,0,4-0.1,5-0.1c1.2,0,5.1,0.1,5.1,0.1c2.5,0.1,5.1,0.9,5.1,5.2v10.7C172.7,18.7,171.8,21.5,167.5,21.5L167.5,21.5z M165.1,5.2     h-5.2v11.6h5.2V5.2L165.1,5.2z"></path>
		</g>
		<g>
			<polygon class="st0" points="65,16.2 64.2,16.2 61.1,0 53,0 57.9,21.5 71.1,21.5 76,0 68,0    "></polygon>
		</g>
		<g>
			<path class="st0" d="M0,60.8v-7.4l17.6-20.7H0.8v-8.4h32v7.5L15.1,52.3h17.8v8.4L0,60.8L0,60.8z M22.8,21H11.2L5.5,10.9H13l4,5.6     l4.1-5.6h7.3L22.8,21L22.8,21z"></path>
		</g>
	</g>
	<g>
		<path class="st0" d="M118,66.9h4.4l2.7,7.1l2.7-7.1h4.4v12h-3.3v-7l-2.7,7h-2.5L121,72V79h-3V66.9z"></path>
		<path class="st0" d="M138.2,66.9h3.4l4.8,12.1H143l-0.6-1.6h-5.1l-0.6,1.6h-3.3L138.2,66.9z M141.3,74.6l-1.5-3.8l-1.5,3.8H141.3z    "></path>
		<path class="st0" d="M147.7,66.9h3.6l4.7,6.4v-6.4h3.2v12h-3.1l-5.2-7v7h-3.2V66.9z"></path>
		<path class="st0" d="M160.7,72.9c0-4.6,2.7-6.2,6.5-6.2c3.8,0,6.5,1.6,6.5,6.2c0,4.6-2.7,6.2-6.5,6.2    C163.4,79.1,160.7,77.6,160.7,72.9z M170.4,73c0-1.9-0.6-3.2-3.1-3.2c-2.5,0-3.1,1.3-3.1,3.2s0.6,3.2,3.1,3.2    C169.7,76.2,170.4,74.9,170.4,73z"></path>
	</g>
	<g>
		<rect x="0.2" y="71.9" class="st0" width="113.7" height="2.7"></rect>
	</g>
</g>
</svg>